<svg width="42" height="34" viewBox="0 0 42 34" fill="none" xmlns="http://www.w3.org/2000/svg">
<g clip-path="url(#clip0_115_95)">
<g clip-path="url(#clip1_115_95)">
<path d="M10.3196 4.11008C17.2529 2.24195 24.5495 2.24195 31.4828 4.11008C33.8102 4.73704 35.5878 6.66233 36.0499 9.05649C36.8685 13.2993 36.8685 17.6631 36.0499 21.9059C35.5879 24.3 33.8103 26.2253 31.4828 26.8529C31.307 26.9003 31.1308 26.9465 30.9544 26.9915C30.6054 27.0803 30.3589 27.4008 30.3589 27.7657V32.8373C30.3589 32.9614 30.2875 33.0745 30.1764 33.1268C30.0654 33.1791 29.9338 33.1614 29.8403 33.0812L24.7342 28.7137C24.3038 28.3458 23.7502 28.1579 23.1879 28.1895C18.8557 28.434 14.5126 27.9828 10.3196 26.8529C7.99208 26.2253 6.21449 24.3 5.75257 21.9059C4.93396 17.6631 4.93396 13.2993 5.75257 9.05649C6.21462 6.66233 7.9922 4.73704 10.3196 4.11008ZM23.7386 21.8676C23.9116 21.8676 24.0539 21.7235 24.0539 21.5483V15.4812H30.0436C30.2166 15.4812 30.3589 15.3371 30.3589 15.1619V9.41403C30.3589 9.23893 30.2166 9.09477 30.0436 9.09477H11.7591C11.5861 9.09477 11.4438 9.23893 11.4438 9.41403V15.1619C11.4438 15.3371 11.5861 15.4812 11.7591 15.4812H17.7489V21.5483C17.7489 21.7235 17.8911 21.8676 18.064 21.8676H23.7386Z" fill="white"/>
<path d="M30.75 5.61914H11.1159V25.4402H30.75V5.61914Z" fill="white"/>
<path fill-rule="evenodd" clip-rule="evenodd" d="M28.1862 9.0683C28.1862 8.59238 27.804 8.20654 27.3325 8.20654H14.5277C14.0562 8.20654 13.6741 8.59238 13.6741 9.0683V12.0846C13.6741 12.5605 14.0562 12.9464 14.5277 12.9464H17.5179C17.9893 12.9464 18.3716 13.3322 18.3716 13.8082V21.9909C18.3716 22.4668 18.7537 22.8526 19.2252 22.8526H22.6398C23.1113 22.8526 23.4935 22.4668 23.4935 21.9909V13.8082C23.4935 13.3322 23.8756 12.9464 24.3471 12.9464H27.3325C27.804 12.9464 28.1862 12.5605 28.1862 12.0846V9.0683Z" fill="black"/>
<path d="M10.2299 4.08582C17.0432 2.25004 24.2135 2.25004 31.0268 4.08582C33.3139 4.70194 35.0608 6.5939 35.5148 8.94663C36.3193 13.116 36.3193 17.4043 35.5148 21.5736C35.0608 23.9263 33.314 25.8182 31.0268 26.435C30.854 26.4816 30.6809 26.527 30.5076 26.5712C30.1646 26.6585 29.9224 26.9734 29.9224 27.332V32.3158C29.9224 32.4377 29.8522 32.5489 29.743 32.6003C29.6339 32.6517 29.5046 32.6343 29.4127 32.5555L24.395 28.2636C23.9721 27.902 23.4281 27.7174 22.8755 27.7485C18.6183 27.9887 14.3504 27.5453 10.2299 26.435C7.94268 25.8182 6.19587 23.9263 5.74194 21.5736C4.9375 17.4043 4.9375 13.116 5.74194 8.94663C6.19599 6.5939 7.94281 4.70194 10.2299 4.08582ZM23.4166 21.536C23.5866 21.536 23.7265 21.3943 23.7265 21.2222V15.2601H29.6126C29.7825 15.2601 29.9224 15.1185 29.9224 14.9464V9.29796C29.9224 9.1259 29.7825 8.98423 29.6126 8.98423H11.6444C11.4745 8.98423 11.3347 9.1259 11.3347 9.29796V14.9464C11.3347 15.1185 11.4745 15.2601 11.6444 15.2601H17.5306V21.2222C17.5306 21.3943 17.6704 21.536 17.8404 21.536H23.4166Z" fill="white"/>
<path fill-rule="evenodd" clip-rule="evenodd" d="M28.1862 9.06635C28.1862 8.59042 27.804 8.20459 27.3325 8.20459H14.5277C14.0562 8.20459 13.6741 8.59042 13.6741 9.06635V12.0826C13.6741 12.5586 14.0562 12.9444 14.5277 12.9444H27.3325C27.804 12.9444 28.1862 12.5586 28.1862 12.0826V9.06635ZM22.6398 22.8555C23.1113 22.8555 23.4935 22.4697 23.4935 21.9938V13.8068C23.4935 13.3309 23.1113 12.9451 22.6398 12.9451H19.2252C18.7537 12.9451 18.3716 13.3309 18.3716 13.8068V21.9938C18.3716 22.4697 18.7537 22.8555 19.2252 22.8555H22.6398Z" fill="black"/>
</g>
</g>
<defs>
<clipPath id="clip0_115_95">
<rect width="41.3217" height="32.6224" fill="white" transform="translate(0.178345 0.53418)"/>
</clipPath>
<clipPath id="clip1_115_95">
<rect width="32.6224" height="30.4476" fill="white" transform="translate(4.52795 2.70898)"/>
</clipPath>
</defs>
</svg>
