<svg width="43" height="34" viewBox="0 0 43 34" fill="none" xmlns="http://www.w3.org/2000/svg">
<g clip-path="url(#clip0_115_91)">
<path d="M19.8212 23.5125C17.2923 23.2487 15.0119 22.6259 13.0597 21.099C12.8174 20.9091 12.5674 20.7259 12.3463 20.5137C11.4918 19.6931 11.4057 18.7532 12.0819 17.7845C12.6603 16.9557 13.6313 16.7339 14.6406 17.2099C14.836 17.3021 15.0222 17.4173 15.2006 17.5409C18.8389 20.0409 23.8371 20.1099 27.4892 17.6534C27.851 17.3759 28.2378 17.1497 28.686 17.0342C29.5576 16.8104 30.3704 17.1306 30.8381 17.8932C31.3725 18.7641 31.3657 19.6142 30.7073 20.2903C29.6973 21.3269 28.4827 22.0768 27.1332 22.6003C25.857 23.095 24.4593 23.3441 23.0759 23.5094C23.2847 23.7367 23.3831 23.8484 23.5136 23.9796C25.3921 25.867 27.2787 27.7464 29.151 29.6396C29.7889 30.2846 29.9222 31.0845 29.5709 31.8348C29.1869 32.6548 28.3273 33.1943 27.4844 33.1365C26.9504 33.0996 26.5339 32.8338 26.1639 32.461C24.7463 31.0346 23.3021 29.6345 21.9132 28.181C21.509 27.7584 21.3146 27.8383 20.9579 28.2053C19.5318 29.6734 18.0825 31.119 16.6246 32.5563C15.97 33.2018 15.191 33.3179 14.4318 32.9493C13.6248 32.5581 13.1113 31.7343 13.1509 30.9065C13.1782 30.3465 13.4536 29.9187 13.838 29.535C15.697 27.6788 17.5509 25.8178 19.4054 23.9584C19.5281 23.8347 19.6425 23.7035 19.8212 23.5125Z" fill="white"/>
<path d="M21.3619 17.0465C16.8502 17.0311 13.1507 13.2909 13.177 8.77204C13.203 4.20334 16.9049 0.521571 21.461 0.534212C26.0263 0.546512 29.6906 4.28124 29.6677 8.89747C29.6445 13.4071 25.9194 17.0622 21.3619 17.0465ZM25.4622 8.78302C25.4543 6.53931 23.6674 4.75307 21.4282 4.75102C19.1701 4.74863 17.3672 6.56731 17.3846 8.83152C17.4013 11.0667 19.2036 12.8403 21.449 12.8321C23.6876 12.8242 25.4697 11.0264 25.4622 8.78302Z" fill="white"/>
</g>
<defs>
<clipPath id="clip0_115_91">
<rect width="41.3217" height="32.6224" fill="white" transform="translate(0.758789 0.53418)"/>
</clipPath>
</defs>
</svg>
