<svg width="42" height="34" viewBox="0 0 42 34" fill="none" xmlns="http://www.w3.org/2000/svg">
<path d="M16.6546 30.811C16.4961 30.811 16.3059 30.7793 16.1474 30.7476C15.5451 30.5891 15.1013 30.1136 14.8794 29.543L11.7727 20.0328L13.3894 19.4939L16.4961 29.0041C16.5278 29.0675 16.5595 29.0992 16.5912 29.0992C16.6546 29.0992 16.6863 29.0992 16.718 29.0675L21.5048 25.1366L22.5826 26.468L17.7958 30.3989C17.5105 30.6842 17.0984 30.811 16.6546 30.811Z" fill="white"/>
<path d="M31.3314 33.1566C30.7925 33.1566 30.2536 32.9664 29.7781 32.6493C27.6224 31.0643 24.2622 28.56 21.4725 26.4994L19.1559 28.029C19.1559 28.029 16.5589 30.8107 16.337 30.7473C15.6713 30.6205 15.1007 30.145 14.8788 29.4793L11.9306 20.4129L3.91036 17.8452C3.11784 17.5916 2.54723 16.8625 2.51553 16.0382C2.48383 15.1823 2.95934 14.4532 3.75186 14.1045C11.677 10.8393 30.7925 3.00928 36.7839 0.663434C37.4496 0.409829 38.1787 0.536632 38.7177 0.98044C39.2566 1.42425 39.5102 2.15337 39.3834 2.81908L33.9309 31.0009C33.7723 31.8885 33.17 32.6177 32.3141 32.9347C31.9654 33.1249 31.6484 33.1566 31.3314 33.1566ZM17.1929 21.3956C17.3831 21.3956 17.5416 21.4591 17.7001 21.5542L31.4564 8.49288C31.4881 8.52458 31.4247 8.42948 31.4564 8.49288C31.4881 8.55628 31.4881 8.39778 31.4564 8.49288C31.5515 8.46118 31.4247 8.46118 31.4564 8.49288C31.4247 8.42948 18.4323 15.7285 18.4323 15.7285L12.8816 18.923C13.1352 19.0181 13.3571 19.2083 13.4522 19.4619L16.02 27.3236C16.1468 25.8971 16.2736 23.9634 16.3687 22.1565C16.4004 21.8395 16.5589 21.5542 16.8759 21.4274C16.9393 21.4274 17.0661 21.3956 17.1929 21.3956Z" fill="white"/>
<path d="M16.718 30.8426L16.3059 30.7792C15.6402 30.6523 15.0696 30.1768 14.8477 29.5111L11.5825 19.3986L31.2369 7.6377C31.649 7.38409 32.2196 7.47919 32.5049 7.8913C32.7902 8.30341 32.7585 8.84232 32.3781 9.19103L18.0494 22.6638C17.6373 30.1451 17.4154 30.3353 17.0667 30.6207L16.718 30.8426ZM13.6431 20.1594L15.9889 27.3872C16.1157 25.9607 16.2425 24.0269 16.3376 22.22L16.3693 21.8713L26.1965 12.6464L13.6431 20.1594Z" fill="white"/>
</svg>
