<svg width="42" height="34" viewBox="0 0 42 34" fill="none" xmlns="http://www.w3.org/2000/svg">
<path d="M20.7652 28.5348H22.9745C22.9745 28.5348 23.6423 28.4591 23.982 28.0835C24.2963 27.7386 24.2847 27.0912 24.2847 27.0912C24.2847 27.0912 24.2408 24.06 25.6181 23.6135C26.9747 23.174 28.7171 26.5431 30.5635 27.8401C31.9593 28.8206 33.02 28.6056 33.02 28.6056L37.9585 28.5348C37.9585 28.5348 40.5421 28.3717 39.3173 26.295C39.2179 26.1249 38.6032 24.7593 35.6452 21.9526C32.5486 19.0135 32.9646 19.4908 36.6944 14.4088C38.966 11.3138 39.8742 9.42375 39.59 8.61574C39.3196 7.84554 37.6488 8.04872 37.6488 8.04872L32.0934 8.0818C32.0934 8.0818 31.682 8.02509 31.3747 8.21174C31.0765 8.39602 30.8847 8.82129 30.8847 8.82129C30.8847 8.82129 30.0043 11.217 28.8303 13.2535C26.3553 17.5511 25.3639 17.7779 24.9595 17.5109C24.019 16.8895 24.2547 15.0113 24.2547 13.6788C24.2547 9.51353 24.8717 7.77702 23.0507 7.32813C22.4453 7.17929 22.0016 7.08006 20.4555 7.06352C18.4728 7.04226 16.7927 7.07061 15.843 7.54549C15.2098 7.86208 14.7222 8.56849 15.0203 8.60865C15.3877 8.65827 16.2196 8.83783 16.661 9.4521C17.2318 10.2436 17.211 12.025 17.211 12.025C17.211 12.025 17.5392 16.9273 16.4461 17.5369C15.6951 17.9551 14.6667 17.1022 12.4598 13.2015C11.3297 11.2051 10.4747 8.99612 10.4747 8.99612C10.4747 8.99612 10.3106 8.58503 10.0171 8.36531C9.66124 8.09833 9.16208 8.01328 9.16208 8.01328L3.87931 8.04636C3.87931 8.04636 3.08666 8.06998 2.79549 8.42201C2.53667 8.73623 2.77469 9.38358 2.77469 9.38358C2.77469 9.38358 6.91124 19.2758 11.5932 24.2632C15.8892 28.8348 20.7652 28.5348 20.7652 28.5348Z" fill="white"/>
</svg>
