<svg width="43" height="34" viewBox="0 0 43 34" fill="none" xmlns="http://www.w3.org/2000/svg">
<path fill-rule="evenodd" clip-rule="evenodd" d="M35.6711 2.94658C38.1478 3.08604 39.3642 3.45277 40.4851 5.44654C41.6524 7.43773 42.2412 10.8674 42.2412 16.9081V16.9159V16.9288C42.2412 22.9411 41.6524 26.3966 40.4876 28.3672C39.3668 30.3609 38.1504 30.7225 35.6737 30.8904C33.197 31.0324 26.9755 31.1176 21.5856 31.1176C16.1853 31.1176 9.96126 31.0324 7.48712 30.8878C5.01557 30.7199 3.79916 30.3583 2.66798 28.3646C1.51355 26.394 0.919556 22.9385 0.919556 16.9262V16.9211V16.9133V16.9056C0.919556 10.8674 1.51355 7.43773 2.66798 5.44654C3.79916 3.45019 5.01815 3.08604 7.4897 2.944C9.96126 2.77871 16.1853 2.70898 21.5856 2.70898C26.9755 2.70898 33.197 2.77871 35.6711 2.94658ZM29.3282 16.9133L16.4152 9.16552V24.6611L29.3282 16.9133Z" fill="white"/>
</svg>
