<svg width="55" height="67" viewBox="0 0 55 67" fill="none" xmlns="http://www.w3.org/2000/svg">
<path d="M2.69056 53.1944C3.89808 54.8984 5.56677 56.0881 7.41169 56.7122C10.1882 57.6514 13.3583 57.3073 15.9298 55.5152C15.9365 55.5118 15.9431 55.5081 15.9495 55.5041C15.9557 55.4999 15.9618 55.4958 15.9677 55.4916L15.9768 55.4849C15.983 55.4804 15.989 55.4759 15.9948 55.4717L25.1377 49.0016L28.4753 59.6934C28.4783 59.7048 28.4822 59.7142 28.4856 59.7242C28.4873 59.7289 28.4887 59.7335 28.4902 59.7388C30.0752 64.7365 35.4247 67.529 40.4331 65.9665C45.446 64.4058 48.257 59.0603 46.7187 54.0434L46.7158 54.0312C46.7133 54.0208 46.7112 54.013 46.7068 54.0041L43.3844 43.3121L54.5837 43.4407C59.8444 43.5013 64.1795 39.2663 64.2412 34.0039C64.303 28.7419 60.0745 24.4079 54.8108 24.3413L43.6164 24.1993L47.2031 13.5812C48.8845 8.59466 46.201 3.16508 41.2179 1.47949C36.2349 -0.206111 30.8063 2.47938 29.114 7.46726L25.5168 18.0718L16.5348 11.3887C16.5308 11.3874 16.5262 11.3848 16.5218 11.3818C16.516 11.378 16.5104 11.3732 16.5061 11.369C12.2859 8.24759 6.31289 9.13074 3.17486 13.3424C0.036894 17.5539 0.898991 23.5267 5.08891 26.6781C5.09282 26.6809 5.09619 26.6839 5.0994 26.6867L5.11386 26.6987L5.12054 26.7039L14.0934 33.3989L4.9625 39.8784C4.95872 39.8821 4.95384 39.8855 4.94893 39.8889C4.94397 39.8922 4.93909 39.8956 4.9353 39.8994C0.66285 42.9507 -0.34547 48.911 2.69056 53.1944Z" fill="#8ADFE3"/>
</svg>
