<svg width="31" height="34" viewBox="0 0 31 34" fill="none" xmlns="http://www.w3.org/2000/svg">
<path d="M1.49413 0.573886C1.07161 1.07345 0.856021 1.71562 0.8915 2.36895V30.7309C0.847873 31.3853 1.06446 32.0304 1.49413 32.5259L1.58388 32.6285L17.4702 16.7422V16.3576L1.58388 0.484131L1.49413 0.573886Z" fill="url(#paint0_linear_85_15)"/>
<path d="M22.7272 22.0348L17.4702 16.7394V16.3548L22.7272 11.0593L22.8426 11.1363L29.1381 14.7007C30.9332 15.7137 30.9332 17.3805 29.1381 18.4063L22.8682 21.9707L22.7272 22.0348Z" fill="url(#paint1_linear_85_15)"/>
<path d="M22.881 21.9601L17.4702 16.5493L1.49414 32.5253C1.85645 32.8479 2.32021 33.0334 2.80499 33.0498C3.28976 33.0662 3.76499 32.9124 4.14826 32.6151L22.881 21.9601" fill="url(#paint2_linear_85_15)"/>
<path d="M22.881 11.139L4.14826 0.496892C3.76749 0.195468 3.29263 0.0379441 2.80719 0.0520147C2.32175 0.0660854 1.85682 0.250852 1.49414 0.573825L17.4702 16.5499L22.881 11.139Z" fill="url(#paint3_linear_85_15)"/>
<path opacity="0.2" d="M22.7271 21.8445L4.14826 32.4225C3.77892 32.7013 3.3288 32.8521 2.86608 32.8521C2.40335 32.8521 1.95323 32.7013 1.58389 32.4225V32.4225L1.49414 32.5123L1.58389 32.6148C1.95323 32.8936 2.40335 33.0444 2.86608 33.0444C3.3288 33.0444 3.77892 32.8936 4.14826 32.6148L22.881 21.9599L22.7271 21.8445Z" fill="black"/>
<defs>
<linearGradient id="paint0_linear_85_15" x1="16.0598" y1="2.07404" x2="-5.45531" y2="23.5891" gradientUnits="userSpaceOnUse">
<stop stop-color="#00A0FF"/>
<stop offset="0.01" stop-color="#00A1FF"/>
<stop offset="0.26" stop-color="#00BEFF"/>
<stop offset="0.51" stop-color="#00D2FF"/>
<stop offset="0.76" stop-color="#00DFFF"/>
<stop offset="1" stop-color="#00E3FF"/>
</linearGradient>
<linearGradient id="paint1_linear_85_15" x1="31.4845" y1="16.5471" x2="0.468438" y2="16.5471" gradientUnits="userSpaceOnUse">
<stop stop-color="#FFE000"/>
<stop offset="0.41" stop-color="#FFBD00"/>
<stop offset="0.78" stop-color="#FFA500"/>
<stop offset="1" stop-color="#FF9C00"/>
</linearGradient>
<linearGradient id="paint2_linear_85_15" x1="19.9448" y1="19.4983" x2="-9.23776" y2="48.6681" gradientUnits="userSpaceOnUse">
<stop stop-color="#FF3A44"/>
<stop offset="1" stop-color="#C31162"/>
</linearGradient>
<linearGradient id="paint3_linear_85_15" x1="-2.53192" y1="-8.86306" x2="10.4951" y2="4.16395" gradientUnits="userSpaceOnUse">
<stop stop-color="#32A071"/>
<stop offset="0.07" stop-color="#2DA771"/>
<stop offset="0.48" stop-color="#15CF74"/>
<stop offset="0.8" stop-color="#06E775"/>
<stop offset="1" stop-color="#00F076"/>
</linearGradient>
</defs>
</svg>
