<svg width="273" height="30" viewBox="0 0 273 30" fill="none" xmlns="http://www.w3.org/2000/svg">
<path d="M46.6608 3.26123H52.6302V12.5552H62.8506V3.26123H68.8201V27.2895H62.8506V17.5422H52.6302V27.2895H46.6608V3.26123Z" fill="white"/>
<path d="M85.1163 27.8331C83.4884 27.8331 81.9358 27.5913 80.4583 27.1077C79.0111 26.5939 77.745 25.8383 76.6596 24.8409C75.5742 23.8133 74.7148 22.5287 74.0818 20.9873C73.4487 19.4156 73.1322 17.5871 73.1322 15.5016V14.5949C73.1322 12.6001 73.4338 10.8622 74.0365 9.38123C74.6396 7.90024 75.4687 6.67613 76.5238 5.70898C77.5792 4.71159 78.8001 3.97108 80.187 3.48752C81.574 2.97368 83.0661 2.7168 84.664 2.7168C88.4327 2.7168 91.2968 3.71419 93.2565 5.70898C95.2163 7.70377 96.1962 10.5902 96.1962 14.3682V16.907H79.2374C79.2674 17.9649 79.4485 18.8867 79.78 19.6726C80.1115 20.4281 80.5488 21.0477 81.0913 21.5313C81.6342 22.0149 82.2523 22.3776 82.9456 22.6194C83.6692 22.831 84.3928 22.9368 85.1163 22.9368C86.6541 22.9368 87.8147 22.7101 88.5985 22.2567C89.3823 21.8034 89.9402 21.1384 90.2717 20.2619H95.7438C95.2616 22.7705 94.0707 24.6595 92.1712 25.9289C90.2717 27.1984 87.9202 27.8331 85.1163 27.8331ZM84.8903 7.61311C84.1967 7.61311 83.5034 7.70377 82.8101 7.8851C82.1468 8.06646 81.5586 8.35359 81.0461 8.74652C80.5338 9.13941 80.1115 9.66836 79.78 10.3333C79.4485 10.9982 79.2674 11.7992 79.2374 12.7361H90.4075C90.3772 11.7387 90.2114 10.9075 89.9099 10.2426C89.6386 9.57766 89.2469 9.04875 88.7343 8.65582C88.2517 8.26293 87.6789 7.9909 87.0159 7.83978C86.3525 7.68867 85.6439 7.61311 84.8903 7.61311Z" fill="white"/>
<path d="M105.888 8.24824H98.2455V3.26123H119.5V8.24824H111.858V27.2895H105.888V8.24824Z" fill="white"/>
<path d="M133.52 27.8331C131.892 27.8331 130.339 27.5913 128.862 27.1077C127.415 26.5939 126.149 25.8231 125.063 24.7955C123.978 23.7679 123.118 22.4834 122.485 20.942C121.852 19.4005 121.536 17.5871 121.536 15.5016V14.5949C121.536 12.6303 121.852 10.9075 122.485 9.42654C123.118 7.94555 123.978 6.70638 125.063 5.70898C126.149 4.71159 127.415 3.97108 128.862 3.48752C130.339 2.97368 131.892 2.7168 133.52 2.7168C135.148 2.7168 136.686 2.97368 138.133 3.48752C139.58 3.97108 140.846 4.71159 141.931 5.70898C143.047 6.70638 143.921 7.94555 144.554 9.42654C145.188 10.9075 145.504 12.6303 145.504 14.5949V15.5016C145.504 17.5569 145.188 19.3552 144.554 20.8966C143.921 22.4381 143.047 23.7226 141.931 24.7502C140.846 25.7778 139.58 26.5486 138.133 27.0624C136.686 27.5762 135.148 27.8331 133.52 27.8331ZM133.52 22.7554C135.208 22.7554 136.61 22.1509 137.726 20.942C138.871 19.733 139.444 17.9195 139.444 15.5016V14.5949C139.444 12.3885 138.871 10.7111 137.726 9.56255C136.61 8.38383 135.208 7.79444 133.52 7.79444C131.801 7.79444 130.384 8.38383 129.269 9.56255C128.153 10.7111 127.596 12.3885 127.596 14.5949V15.5016C127.596 17.9498 128.153 19.7783 129.269 20.9873C130.384 22.166 131.801 22.7554 133.52 22.7554Z" fill="white"/>
<path d="M149.567 27.8335C149.325 27.8335 149.024 27.8184 148.662 27.7882C148.301 27.7882 147.999 27.7579 147.758 27.6975V22.3025C147.909 22.3327 148.135 22.3478 148.436 22.3478C149.009 22.3478 149.507 22.1816 149.929 21.8491C150.351 21.4864 150.697 20.8819 150.969 20.0357C151.27 19.1894 151.481 18.0711 151.602 16.6808C151.753 15.2602 151.828 13.5072 151.828 11.4218V3.26123H170.822V27.2895H164.852V8.24824H157.345V12.3285C157.345 15.4416 157.179 18.0106 156.848 20.0357C156.546 22.0305 156.064 23.6021 155.401 24.7506C154.767 25.8991 153.954 26.7001 152.959 27.1534C151.994 27.6068 150.863 27.8335 149.567 27.8335Z" fill="white"/>
<path d="M187.09 27.8331C185.462 27.8331 183.909 27.5913 182.432 27.1077C180.985 26.5939 179.718 25.8231 178.633 24.7955C177.548 23.7679 176.689 22.4834 176.056 20.942C175.422 19.4005 175.106 17.5871 175.106 15.5016V14.5949C175.106 12.6303 175.422 10.9075 176.056 9.42654C176.689 7.94555 177.548 6.70638 178.633 5.70898C179.718 4.71159 180.985 3.97108 182.432 3.48752C183.909 2.97368 185.462 2.7168 187.09 2.7168C188.718 2.7168 190.256 2.97368 191.703 3.48752C193.15 3.97108 194.416 4.71159 195.502 5.70898C196.617 6.70638 197.491 7.94555 198.124 9.42654C198.757 10.9075 199.074 12.6303 199.074 14.5949V15.5016C199.074 17.5569 198.757 19.3552 198.124 20.8966C197.491 22.4381 196.617 23.7226 195.502 24.7502C194.416 25.7778 193.15 26.5486 191.703 27.0624C190.256 27.5762 188.718 27.8331 187.09 27.8331ZM187.09 22.7554C188.778 22.7554 190.18 22.1509 191.296 20.942C192.441 19.733 193.014 17.9195 193.014 15.5016V14.5949C193.014 12.3885 192.441 10.7111 191.296 9.56255C190.18 8.38383 188.778 7.79444 187.09 7.79444C185.371 7.79444 183.954 8.38383 182.839 9.56255C181.723 10.7111 181.166 12.3885 181.166 14.5949V15.5016C181.166 17.9498 181.723 19.7783 182.839 20.9873C183.954 22.166 185.371 22.7554 187.09 22.7554Z" fill="white"/>
<path d="M203.805 3.26123H220.99V8.24824H209.774V27.2895H203.805V3.26123Z" fill="white"/>
<path d="M224.595 3.26123H230.565V18.6756L241.237 3.26123H246.754V27.2895H240.785V11.8751L230.113 27.2895H224.595V3.26123Z" fill="white"/>
<path d="M257.036 18.2675C255.197 17.663 253.856 16.7563 253.011 15.5474C252.167 14.3384 251.745 12.9178 251.745 11.2857C251.745 10.107 251.941 9.03407 252.333 8.06688C252.755 7.06949 253.373 6.22321 254.187 5.52804C255.001 4.80267 256.026 4.24352 257.262 3.85063C258.529 3.4577 260.006 3.26123 261.694 3.26123H273V27.2895H267.031V18.9929H262.734L257.534 27.2895H250.841L257.036 18.2675ZM257.714 11.2857C257.714 12.3134 258.046 13.069 258.709 13.5526C259.403 14.0361 260.323 14.278 261.468 14.278H267.031V8.24824H261.468C260.323 8.24824 259.403 8.50513 258.709 9.01893C258.046 9.50252 257.714 10.2581 257.714 11.2857Z" fill="white"/>
<path fill-rule="evenodd" clip-rule="evenodd" d="M7.71611 15.7208C7.52554 15.7055 7.33287 15.6978 7.13839 15.6978C3.19597 15.6978 0 18.8995 0 22.8489C0 26.7984 3.19597 30.0001 7.13839 30.0001C11.0808 30.0001 14.2768 26.7984 14.2768 22.8489C14.2768 22.5457 14.2579 22.247 14.2214 21.9537C10.8457 21.6829 8.13227 19.0594 7.71611 15.7208Z" fill="white"/>
<path fill-rule="evenodd" clip-rule="evenodd" d="M14.2768 7.15116C14.2768 3.2017 11.0808 0 7.13839 0C3.19597 0 3.91672e-07 3.2017 0 7.15116C-7.09183e-07 11.1006 3.19597 14.3023 7.13839 14.3023C7.32096 14.3023 7.50193 14.2955 7.68102 14.282C7.94486 10.7659 10.7467 7.95907 14.2565 7.69476C14.2699 7.51535 14.2768 7.33406 14.2768 7.15116Z" fill="white"/>
<path fill-rule="evenodd" clip-rule="evenodd" d="M21.9145 14.2468C22.2072 14.2835 22.5054 14.3023 22.8081 14.3023C26.7505 14.3023 29.9465 11.1006 29.9465 7.15116C29.9465 3.2017 26.7505 0 22.8081 0C18.8657 0 15.6697 3.2017 15.6697 7.15116C15.6697 7.34599 15.6774 7.539 15.6927 7.72992C19.0253 8.14682 21.6441 10.8651 21.9145 14.2468Z" fill="white"/>
<path fill-rule="evenodd" clip-rule="evenodd" d="M15.7298 21.9166C15.6901 22.2217 15.6697 22.5329 15.6697 22.8489C15.6697 26.7984 18.8657 30.0001 22.8081 30.0001C26.7505 30.0001 29.9465 26.7984 29.9465 22.8489C29.9465 18.8995 26.7505 15.6978 22.8081 15.6978C22.4927 15.6978 22.182 15.7182 21.8774 15.758C21.461 18.9618 18.9279 21.4995 15.7298 21.9166Z" fill="white"/>
</svg>
