<svg width="26" height="35" viewBox="0 0 26 35" fill="none" xmlns="http://www.w3.org/2000/svg">
<path d="M3.00078 34.2654C2.14525 34.2654 1.43149 33.9794 0.859491 33.4074C0.287491 32.8354 0.000871884 32.1216 -0.000366211 31.2661V3.83608C-0.000366211 2.98179 0.286252 2.26865 0.859491 1.69665C1.43273 1.12465 2.14649 0.83803 3.00078 0.836792H17.6425L25.9996 9.19393V31.2661C25.9996 32.1204 25.7136 32.8341 25.1416 33.4074C24.5696 33.9806 23.8553 34.2666 22.9985 34.2654H3.00078ZM5.50049 29.1211H20.5006C20.4016 27.8991 20.0326 26.7767 19.3938 25.7541C18.7549 24.7302 17.9043 23.9186 16.8421 23.3194L18.2665 20.7695C18.3173 20.6692 18.321 20.5596 18.2776 20.4408C18.2355 20.3219 18.1569 20.2316 18.0418 20.1696C17.9502 20.1077 17.8523 20.0916 17.7483 20.1214C17.6443 20.1511 17.5676 20.2167 17.5181 20.3182L16.0472 22.9256C15.5705 22.7263 15.0778 22.5746 14.5689 22.4706C14.0601 22.3666 13.5388 22.3153 13.0052 22.3165C12.4716 22.3177 11.9541 22.371 11.4526 22.4762C10.9512 22.5815 10.4516 22.7313 9.95392 22.9256L8.49978 20.3182C8.43787 20.2117 8.34935 20.1461 8.23421 20.1214C8.11906 20.0978 8.00763 20.117 7.89992 20.1789C7.87516 20.1789 7.82502 20.3758 7.74949 20.7695L9.19249 23.3194C8.13763 23.9186 7.28335 24.7296 6.62963 25.7522C5.97592 26.7749 5.59954 27.8985 5.50049 29.1229M9.64192 26.8721C9.44259 26.8721 9.26801 26.7972 9.1182 26.6474C8.9684 26.4976 8.89349 26.3224 8.89349 26.1218C8.89349 25.9212 8.96778 25.7466 9.11635 25.5981C9.2674 25.4483 9.44259 25.3734 9.64192 25.3734C9.84125 25.3734 10.0109 25.4476 10.1508 25.5962C10.2882 25.7473 10.3569 25.9231 10.3569 26.1236C10.3569 26.3242 10.2857 26.4988 10.1433 26.6474C10.001 26.7959 9.83382 26.8708 9.64192 26.8721ZM16.3926 26.8721C16.1933 26.8721 16.0181 26.7972 15.8671 26.6474C15.716 26.4976 15.6411 26.3224 15.6423 26.1218C15.6436 25.9212 15.7185 25.7466 15.8671 25.5981C16.0181 25.4483 16.1933 25.3734 16.3926 25.3734C16.592 25.3734 16.761 25.4476 16.8996 25.5962C17.0383 25.7448 17.1076 25.9206 17.1076 26.1236C17.1076 26.3267 17.0358 26.5013 16.8922 26.6474C16.7486 26.7935 16.5821 26.8684 16.3926 26.8721ZM16.7139 10.1225H24.1425L16.7139 2.69393V10.1225Z" fill="white"/>
</svg>
