<svg width="30" height="39" viewBox="0 0 30 39" fill="none" xmlns="http://www.w3.org/2000/svg">
<path d="M24.9097 20.8591C24.9278 19.3833 25.2996 17.9364 25.9907 16.6529C26.6818 15.3693 27.6696 14.2909 28.8623 13.518C28.1046 12.3773 27.1051 11.4386 25.943 10.7764C24.781 10.1141 23.4884 9.74664 22.1681 9.7031C19.3515 9.39145 16.621 11.4797 15.1857 11.4797C13.7227 11.4797 11.5129 9.73404 9.13325 9.78564C7.59406 9.83806 6.09399 10.3099 4.77921 11.1551C3.46444 12.0003 2.37978 13.1902 1.63093 14.6087C-1.61284 20.5288 0.806728 29.2295 3.91405 34.015C5.46871 36.3583 7.28566 38.9758 9.66313 38.883C11.9896 38.7813 12.8585 37.3192 15.6668 37.3192C18.449 37.3192 19.2641 38.883 21.6899 38.824C24.1863 38.7813 25.7591 36.4703 27.2593 34.1048C28.3763 32.4351 29.2359 30.5898 29.8061 28.6371C28.3557 27.9904 27.118 26.9081 26.2473 25.5249C25.3766 24.1418 24.9114 22.519 24.9097 20.8591Z" fill="white"/>
<path d="M20.3271 6.55834C21.6882 4.83589 22.3588 2.62196 22.1964 0.386719C20.1169 0.616954 18.196 1.66463 16.8164 3.321C16.1419 4.13017 15.6253 5.07155 15.2962 6.09131C14.967 7.11108 14.8318 8.18922 14.8981 9.26412C15.9383 9.27541 16.9673 9.03776 17.9077 8.56907C18.848 8.10039 19.6753 7.41288 20.3271 6.55834V6.55834Z" fill="white"/>
</svg>
