<svg width="313" height="43" viewBox="0 0 313 43" fill="none" xmlns="http://www.w3.org/2000/svg">
<path d="M48.6194 6.51189H55.9313V17.8675H68.4502V6.51189H75.7622V35.8704H68.4502V23.9608H55.9313V35.8704H48.6194V6.51189Z" fill="white"/>
<path d="M94.0615 36.5351C92.0673 36.5351 90.1655 36.2397 88.3559 35.6488C86.5834 35.021 85.0323 34.0978 83.7029 32.8792C82.3735 31.6236 81.321 30.0541 80.5455 28.1707C79.77 26.2504 79.3822 24.0162 79.3822 21.4681V20.3603C79.3822 17.9229 79.7515 15.7995 80.4901 13.99C81.2287 12.1805 82.2442 10.6849 83.5367 9.50314C84.8292 8.28448 86.3249 7.37972 88.0236 6.78886C89.7223 6.16107 91.5503 5.84717 93.5075 5.84717C98.1237 5.84717 101.632 7.06583 104.032 9.50314C106.433 11.9404 107.633 15.4672 107.633 20.0833V23.1853H86.8603C86.8973 24.4778 87.1188 25.6042 87.5251 26.5643C87.9313 27.4875 88.4667 28.2446 89.1315 28.8354C89.7962 29.4263 90.5532 29.8695 91.4026 30.1649C92.2889 30.4234 93.1752 30.5526 94.0615 30.5526C95.9449 30.5526 97.3666 30.2757 98.3268 29.7217C99.2869 29.1678 99.9701 28.3554 100.376 27.2844H107.079C106.488 30.3495 105.029 32.6576 102.703 34.2086C100.376 35.7596 97.4959 36.5351 94.0615 36.5351ZM93.7845 11.8297C92.9351 11.8297 92.0858 11.9404 91.2364 12.162C90.424 12.3836 89.7039 12.7344 89.0761 13.2145C88.4483 13.6946 87.9313 14.3408 87.5251 15.1533C87.1188 15.9657 86.8973 16.9443 86.8603 18.0891H100.543C100.506 16.8705 100.302 15.8549 99.9332 15.0425C99.6008 14.23 99.1207 13.5838 98.4929 13.1037C97.9021 12.6236 97.2004 12.2913 96.388 12.1066C95.5756 11.922 94.7077 11.8297 93.7845 11.8297Z" fill="white"/>
<path d="M117.843 12.6052H108.481V6.51189H134.516V12.6052H125.155V35.8704H117.843V12.6052Z" fill="white"/>
<path d="M150.026 36.5351C148.032 36.5351 146.13 36.2397 144.321 35.6488C142.548 35.021 140.997 34.0794 139.668 32.8238C138.338 31.5682 137.286 29.9987 136.51 28.1153C135.735 26.232 135.347 24.0162 135.347 21.4681V20.3603C135.347 17.9599 135.735 15.8549 136.51 14.0454C137.286 12.2359 138.338 10.7218 139.668 9.50314C140.997 8.28448 142.548 7.37972 144.321 6.78886C146.13 6.16107 148.032 5.84717 150.026 5.84717C152.02 5.84717 153.904 6.16107 155.676 6.78886C157.449 7.37972 159 8.28448 160.329 9.50314C161.696 10.7218 162.767 12.2359 163.542 14.0454C164.318 15.8549 164.705 17.9599 164.705 20.3603V21.4681C164.705 23.9793 164.318 26.1766 163.542 28.0599C162.767 29.9433 161.696 31.5128 160.329 32.7684C159 34.024 157.449 34.9657 155.676 35.5934C153.904 36.2212 152.02 36.5351 150.026 36.5351ZM150.026 30.3311C152.094 30.3311 153.811 29.5925 155.178 28.1153C156.581 26.6382 157.283 24.4224 157.283 21.4681V20.3603C157.283 17.6644 156.581 15.6149 155.178 14.2116C153.811 12.7713 152.094 12.0512 150.026 12.0512C147.921 12.0512 146.186 12.7713 144.819 14.2116C143.453 15.6149 142.77 17.6644 142.77 20.3603V21.4681C142.77 24.4594 143.453 26.6936 144.819 28.1707C146.186 29.611 147.921 30.3311 150.026 30.3311Z" fill="white"/>
<path d="M168.02 36.5351C167.725 36.5351 167.356 36.5167 166.912 36.4797C166.469 36.4797 166.1 36.4428 165.805 36.3689V29.7771C165.989 29.8141 166.266 29.8325 166.636 29.8325C167.337 29.8325 167.946 29.6294 168.464 29.2232C168.981 28.7801 169.405 28.0415 169.738 27.0075C170.107 25.9734 170.365 24.6071 170.513 22.9083C170.698 21.1727 170.79 19.0308 170.79 16.4827V6.51189H194.055V35.8704H186.743V12.6052H177.548V17.5906C177.548 21.3943 177.345 24.5332 176.939 27.0075C176.569 29.4448 175.979 31.3651 175.166 32.7684C174.391 34.1717 173.394 35.1503 172.175 35.7042C170.993 36.2582 169.608 36.5351 168.02 36.5351Z" fill="white"/>
<path d="M212.32 36.5351C210.326 36.5351 208.424 36.2397 206.614 35.6488C204.842 35.021 203.291 34.0794 201.961 32.8238C200.632 31.5682 199.579 29.9987 198.804 28.1153C198.028 26.232 197.641 24.0162 197.641 21.4681V20.3603C197.641 17.9599 198.028 15.8549 198.804 14.0454C199.579 12.2359 200.632 10.7218 201.961 9.50314C203.291 8.28448 204.842 7.37972 206.614 6.78886C208.424 6.16107 210.326 5.84717 212.32 5.84717C214.314 5.84717 216.197 6.16107 217.97 6.78886C219.743 7.37972 221.294 8.28448 222.623 9.50314C223.99 10.7218 225.06 12.2359 225.836 14.0454C226.611 15.8549 226.999 17.9599 226.999 20.3603V21.4681C226.999 23.9793 226.611 26.1766 225.836 28.0599C225.06 29.9433 223.99 31.5128 222.623 32.7684C221.294 34.024 219.743 34.9657 217.97 35.5934C216.197 36.2212 214.314 36.5351 212.32 36.5351ZM212.32 30.3311C214.388 30.3311 216.105 29.5925 217.472 28.1153C218.875 26.6382 219.576 24.4224 219.576 21.4681V20.3603C219.576 17.6644 218.875 15.6149 217.472 14.2116C216.105 12.7713 214.388 12.0512 212.32 12.0512C210.215 12.0512 208.479 12.7713 207.113 14.2116C205.747 15.6149 205.063 17.6644 205.063 20.3603V21.4681C205.063 24.4594 205.747 26.6936 207.113 28.1707C208.479 29.611 210.215 30.3311 212.32 30.3311Z" fill="white"/>
<path d="M231.132 6.51189H252.182V12.6052H238.444V35.8704H231.132V6.51189Z" fill="white"/>
<path d="M254.936 6.51189H262.248V25.3457L275.321 6.51189H282.079V35.8704H274.767V17.0366L261.694 35.8704H254.936V6.51189Z" fill="white"/>
<path d="M293.011 24.8471C290.758 24.1085 289.115 23.0007 288.081 21.5235C287.047 20.0464 286.53 18.3107 286.53 16.3165C286.53 14.8763 286.77 13.5653 287.25 12.3836C287.767 11.1649 288.524 10.1309 289.521 9.28156C290.518 8.39527 291.774 7.71208 293.288 7.23201C294.839 6.75193 296.648 6.51189 298.716 6.51189H312.565V35.8704H305.253V25.7334H299.99L293.62 35.8704H285.422L293.011 24.8471ZM293.842 16.3165C293.842 17.5721 294.248 18.4953 295.06 19.0862C295.91 19.6771 297.036 19.9725 298.439 19.9725H305.253V12.6052H298.439C297.036 12.6052 295.91 12.9191 295.06 13.5469C294.248 14.1377 293.842 15.0609 293.842 16.3165Z" fill="white"/>
<circle cx="27.6886" cy="12.7237" r="8.11118" transform="rotate(90 27.6886 12.7237)" fill="white"/>
<circle cx="9.88352" cy="30.5287" r="8.11118" transform="rotate(-90 9.88352 30.5287)" fill="white"/>
<circle cx="9.88352" cy="12.7238" r="8.11118" transform="rotate(-90 9.88352 12.7238)" fill="white"/>
<circle cx="27.6886" cy="30.5287" r="8.11118" transform="rotate(90 27.6886 30.5287)" fill="white"/>
<circle cx="18.5882" cy="21.4291" r="8.11118" transform="rotate(-90 18.5882 21.4291)" fill="black"/>
</svg>
