<svg width="37" height="37" viewBox="0 0 37 37" fill="none" xmlns="http://www.w3.org/2000/svg">
<path fill-rule="evenodd" clip-rule="evenodd" d="M17.9176 36.8825C9.62092 36.8825 5.47255 36.8825 2.89509 34.305C0.317628 31.7276 0.317627 27.5791 0.317627 19.2824L0.317627 17.8157C0.317627 9.51898 0.317626 5.37061 2.89509 2.79313C5.47255 0.215821 9.62092 0.215821 17.9176 0.21582L19.3843 0.21582C27.681 0.21582 31.8294 0.21582 34.4068 2.79313C36.9843 5.37057 36.9843 9.51898 36.9843 17.8157V19.2824C36.9843 27.5791 36.9843 31.7276 34.4068 34.305C31.8294 36.8825 27.681 36.8825 19.3843 36.8825H17.9176Z" fill="#0077FF"/>
<path d="M21.5227 22.8129C20.5349 22.5661 19.8422 21.6824 19.8422 20.6688V8.72804C19.8422 7.57684 20.93 6.73254 22.0521 7.01284L29.1579 8.78792C30.1458 9.03467 30.8385 9.91838 30.8385 10.9319V22.8727C30.8385 24.0239 29.7507 24.8683 28.6286 24.588L21.5227 22.8129Z" fill="white"/>
<path d="M8.14616 28.3111C7.15824 28.0643 6.46558 27.1805 6.46558 26.167V14.2262C6.46558 13.075 7.55337 12.2307 8.67545 12.511L15.7813 14.2861C16.7692 14.5328 17.4619 15.4165 17.4619 16.4301V28.3709C17.4619 29.5221 16.3741 30.3664 15.252 30.0861L8.14616 28.3111Z" fill="white"/>
<path d="M14.8328 25.5629C13.8449 25.3161 13.1522 24.4324 13.1522 23.4188V11.4781C13.1522 10.3269 14.2401 9.48254 15.3621 9.76283L22.468 11.5379C23.4559 11.7847 24.1486 12.6684 24.1486 13.682V25.6227C24.1486 26.774 23.0608 27.6183 21.9386 27.338L14.8328 25.5629Z" fill="white"/>
<path d="M19.4832 26.7256C19.1721 26.6463 18.9506 26.3712 18.9397 26.0502L18.6306 16.9311C18.5412 15.7242 17.6453 14.7643 16.7091 14.4817C16.6565 14.4658 16.6004 14.4872 16.5692 14.5324C16.5376 14.5783 16.5498 14.6419 16.5939 14.6761C16.8251 14.8551 17.4614 15.4391 17.4614 16.4464L17.4596 26.2127L19.4832 26.7256Z" fill="#2B71F6"/>
<path d="M26.1732 23.9754C25.8623 23.8977 25.6406 23.6233 25.6297 23.303L25.3205 14.1845C25.2311 12.9776 24.3352 12.0177 23.399 11.7351C23.3464 11.7192 23.2903 11.7406 23.2592 11.7858C23.2275 11.8317 23.2398 11.8954 23.2839 11.9295C23.5151 12.1085 24.1514 12.6925 24.1514 13.6999L24.1495 23.4695L26.1732 23.9754Z" fill="#2B71F6"/>
</svg>
