<svg width="81" height="82" viewBox="0 0 81 82" fill="none" xmlns="http://www.w3.org/2000/svg">
<path opacity="0.8" d="M25.6292 4.4494C25.8469 0.742547 30.5586 -0.693039 32.8063 2.26266L48.4624 22.8505C49.169 23.7797 50.2464 24.3539 51.4118 24.4224L77.2318 25.9387C80.9387 26.1564 82.3743 30.8681 79.4186 33.1158L58.8307 48.7719C57.9015 49.4785 57.3273 50.5559 57.2589 51.7213L55.7425 77.5413C55.5248 81.2482 50.8131 82.6837 48.5654 79.728L32.9094 59.1402C32.2027 58.211 31.1253 57.6368 29.9599 57.5684L4.13992 56.052C0.433064 55.8343 -1.00252 51.1226 1.95318 48.8749L22.541 33.2188C23.4703 32.5122 24.0444 31.4348 24.1129 30.2694L25.6292 4.4494Z" fill="#95FCD5"/>
</svg>
